<?xml version="1.0" encoding="UTF-8" standalone="no"?>
<svg
   xmlns:dc="http://purl.org/dc/elements/1.1/"
   xmlns:cc="http://creativecommons.org/ns#"
   xmlns:rdf="http://www.w3.org/1999/02/22-rdf-syntax-ns#"
   xmlns:svg="http://www.w3.org/2000/svg"
   xmlns="http://www.w3.org/2000/svg"
   viewBox="0 0 80 80"
   height="80"
   width="80"
   xml:space="preserve"
   version="1.1"
   id="svg2"><metadata
     id="metadata8"><rdf:RDF><cc:Work
         rdf:about=""><dc:format>image/svg+xml</dc:format><dc:type
           rdf:resource="http://purl.org/dc/dcmitype/StillImage" /></cc:Work></rdf:RDF></metadata><defs
     id="defs6" /><g
     transform="matrix(1.25,0,0,-1.25,0,80)"
     id="g10"><g
       transform="scale(0.1,0.1)"
       id="g12"><path
         id="path14"
         style="fill:#495672;fill-opacity:1;fill-rule:nonzero;stroke:none"
         d="M 640,320 C 640,143.27 496.73,0 320,0 143.27,0 0,143.27 0,320 0,496.73 143.27,640 320,640 496.73,640 640,496.73 640,320" /><path
         id="path16"
         style="fill:#404a5f;fill-opacity:1;fill-rule:nonzero;stroke:none"
         d="m 480,150 -320,0 c -22.094,0 -40,17.91 -40,40 l 0,200 0,-180 c 0,-22.09 17.906,-40 40,-40 l 320,0 c 22.09,0 40,17.91 40,40 l 0,-20 c 0,-22.09 -17.91,-40 -40,-40" /><path
         id="path18"
         style="fill:#e08e4c;fill-opacity:1;fill-rule:nonzero;stroke:none"
         d="m 380,520 -120,0 c -22.094,0 -40,-17.91 -40,-40 l 0,-200 c 0,-22.094 17.906,-40 40,-40 l 120,0 c 22.09,0 40,17.906 40,40 l 0,200 c 0,22.09 -17.91,40 -40,40 m 0,-40 0,-200 -120,0 0,200 120,0" /><path
         id="path20"
         style="fill:#e08e4c;fill-opacity:1;fill-rule:nonzero;stroke:none"
         d="m 120,360 0,-150 c 0,-22.09 17.906,-40 40,-40 l 320,0 c 22.09,0 40,17.91 40,40 l 0,150 -400,0" /><path
         id="path22"
         style="fill:#404a5f;fill-opacity:1;fill-rule:nonzero;stroke:none"
         d="m 520,390 c 0,22.07 -17.875,39.965 -39.934,40 C 502.125,429.965 520,412.07 520,390 m -400,0 c 0,22.094 17.906,40 40,40 -22.094,0 -40,-17.91 -40,-40" /><path
         id="path24"
         style="fill:#394051;fill-opacity:1;fill-rule:nonzero;stroke:none"
         d="m 520,360 -100,0 0,70 60,0 c 0.02,0 0.043,0 0.066,0 C 502.125,429.965 520,412.07 520,390 l 0,-30 m -300,0 -100,0 0,30 c 0,22.09 17.906,40 40,40 l 60,0 0,-70 m 160,24.648 C 374.117,388.051 367.285,390 360,390 l -80,0 c -7.285,0 -14.117,-1.949 -20,-5.352 l 0,45.352 120,0 0,-45.352" /><path
         id="path26"
         style="fill:#b77744;fill-opacity:1;fill-rule:nonzero;stroke:none"
         d="m 420,360 -21.262,0 c -2.703,10.508 -9.57,19.348 -18.738,24.648 l 0,45.352 40,0 0,-70 m -178.738,0 -21.262,0 0,70 40,0 0,-45.352 c -9.168,-5.3 -16.035,-14.14 -18.738,-24.648" /><path
         id="path28"
         style="fill:#b77744;fill-opacity:1;fill-rule:nonzero;stroke:none"
         d="m 520,340 -120,0 0,10 c 0,3.453 -0.437,6.805 -1.262,10 l 121.262,0 0,-20 m -280,0 -120,0 0,20 121.262,0 C 240.438,356.805 240,353.453 240,350 l 0,-10" /><path
         id="path30"
         style="fill:#b77744;fill-opacity:1;fill-rule:nonzero;stroke:none"
         d="m 360,280 -80,0 c -22.09,0 -40,17.91 -40,40 l 0,20 160,0 0,-20 c 0,-22.09 -17.91,-40 -40,-40" /><path
         id="path32"
         style="fill:#343945;fill-opacity:1;fill-rule:nonzero;stroke:none"
         d="m 380,360 -120,0 0,24.648 c 5.883,3.403 12.715,5.352 20,5.352 l 80,0 c 7.285,0 14.117,-1.949 20,-5.352 L 380,360" /><path
         id="path34"
         style="fill:#97633d;fill-opacity:1;fill-rule:nonzero;stroke:none"
         d="m 398.738,360 -18.738,0 0,24.648 c 9.168,-5.3 16.035,-14.14 18.738,-24.648 M 260,360 l -18.738,0 c 2.703,10.508 9.57,19.348 18.738,24.648 L 260,360" /><path
         id="path36"
         style="fill:#97633d;fill-opacity:1;fill-rule:nonzero;stroke:none"
         d="m 400,340 -160,0 0,10 c 0,3.453 0.438,6.805 1.262,10 l 157.476,0 c 0.825,-3.195 1.262,-6.547 1.262,-10 l 0,-10" /><path
         id="path38"
         style="fill:#f3cc70;fill-opacity:1;fill-rule:nonzero;stroke:none"
         d="m 360,410 -80,0 c -22.094,0 -40,-17.91 -40,-40 l 0,-30 c 0,-22.09 17.906,-40 40,-40 l 80,0 c 22.09,0 40,17.91 40,40 l 0,30 c 0,22.09 -17.91,40 -40,40 z m 0,-40 0,-30 -80,0 0,30 80,0" /><path
         id="path40"
         style="fill:#e08e4c;fill-opacity:1;fill-rule:nonzero;stroke:none"
         d="m 520,410 c 0,22.094 -17.906,40 -40,40 l -320,0 c -22.094,0 -40,-17.906 -40,-40 l 0,-50 400,0 0,50" /></g></g></svg>