<?xml version="1.0" encoding="UTF-8" standalone="no"?>
<svg
   xmlns:dc="http://purl.org/dc/elements/1.1/"
   xmlns:cc="http://creativecommons.org/ns#"
   xmlns:rdf="http://www.w3.org/1999/02/22-rdf-syntax-ns#"
   xmlns:svg="http://www.w3.org/2000/svg"
   xmlns="http://www.w3.org/2000/svg"
   viewBox="0 0 80 80"
   height="80"
   width="80"
   xml:space="preserve"
   version="1.1"
   id="svg2"><metadata
     id="metadata8"><rdf:RDF><cc:Work
         rdf:about=""><dc:format>image/svg+xml</dc:format><dc:type
           rdf:resource="http://purl.org/dc/dcmitype/StillImage" /></cc:Work></rdf:RDF></metadata><defs
     id="defs6" /><g
     transform="matrix(1.25,0,0,-1.25,0,80)"
     id="g10"><g
       transform="scale(0.1,0.1)"
       id="g12"><path
         id="path14"
         style="fill:#7db6d8;fill-opacity:1;fill-rule:nonzero;stroke:none"
         d="M 640,320 C 640,143.27 496.73,0 320,0 143.27,0 0,143.27 0,320 0,496.73 143.27,640 320,640 496.73,640 640,496.73 640,320" /><path
         id="path16"
         style="fill:#6594b2;fill-opacity:1;fill-rule:nonzero;stroke:none"
         d="m 480,100 -320,0 c -22.094,0 -40,17.91 -40,40 l 0,320 0,-300 c 0,-22.09 17.906,-40 40,-40 l 320,0 c 22.094,0 40,17.91 40,40 l 0,-20 c 0,-22.09 -17.906,-40 -40,-40" /><path
         id="path18"
         style="fill:#e08e4c;fill-opacity:1;fill-rule:nonzero;stroke:none"
         d="m 480,520 -320,0 c -22.094,0 -40,-17.906 -40,-40 l 0,-320 c 0,-22.09 17.906,-40 40,-40 l 320,0 c 22.094,0 40,17.91 40,40 l 0,320 c 0,22.094 -17.906,40 -40,40" /><path
         id="path20"
         style="fill:#b77744;fill-opacity:1;fill-rule:nonzero;stroke:none"
         d="m 480,140 -320,0 0,320 0,-300 320,0 0,-20" /><path
         id="path22"
         style="fill:#ffffff;fill-opacity:1;fill-rule:nonzero;stroke:none"
         d="m 160,160 320,0 0,320 -320,0 0,-320 z" /><path
         id="path24"
         style="fill:#e1e3cc;fill-opacity:1;fill-rule:nonzero;stroke:none"
         d="m 220,380 200,0 0,20 -200,0 0,-20 z" /><path
         id="path26"
         style="fill:#e1e3cc;fill-opacity:1;fill-rule:nonzero;stroke:none"
         d="m 220,340 200,0 0,20 -200,0 0,-20 z" /><path
         id="path28"
         style="fill:#e1e3cc;fill-opacity:1;fill-rule:nonzero;stroke:none"
         d="m 220,300 200,0 0,20 -200,0 0,-20 z" /><path
         id="path30"
         style="fill:#e1e3cc;fill-opacity:1;fill-rule:nonzero;stroke:none"
         d="m 220,260 200,0 0,20 -200,0 0,-20 z" /><path
         id="path32"
         style="fill:#e1e3cc;fill-opacity:1;fill-rule:nonzero;stroke:none"
         d="m 220,220 200,0 0,20 -200,0 0,-20 z" /><path
         id="path34"
         style="fill:#b77744;fill-opacity:1;fill-rule:nonzero;stroke:none"
         d="m 400,480 -160,0 0,40 160,0 0,-40" /><path
         id="path36"
         style="fill:#d4d3d1;fill-opacity:1;fill-rule:nonzero;stroke:none"
         d="m 370,440 -100,0 c -16.57,0 -30,13.43 -30,30 l 0,10 160,0 0,-10 c 0,-16.57 -13.43,-30 -30,-30" /><path
         id="path38"
         style="fill:#495672;fill-opacity:1;fill-rule:nonzero;stroke:none"
         d="m 370,540 -130,0 0,-50 c 0,-16.57 13.43,-30 30,-30 l 100,0 c 16.57,0 30,13.43 30,30 l 0,50 -30,0" /></g></g></svg>