<?xml version="1.0" encoding="UTF-8" standalone="no"?>
<svg
   xmlns:dc="http://purl.org/dc/elements/1.1/"
   xmlns:cc="http://creativecommons.org/ns#"
   xmlns:rdf="http://www.w3.org/1999/02/22-rdf-syntax-ns#"
   xmlns:svg="http://www.w3.org/2000/svg"
   xmlns="http://www.w3.org/2000/svg"
   viewBox="0 0 80 80"
   height="80"
   width="80"
   xml:space="preserve"
   version="1.1"
   id="svg2"><metadata
     id="metadata8"><rdf:RDF><cc:Work
         rdf:about=""><dc:format>image/svg+xml</dc:format><dc:type
           rdf:resource="http://purl.org/dc/dcmitype/StillImage" /></cc:Work></rdf:RDF></metadata><defs
     id="defs6" /><g
     transform="matrix(1.25,0,0,-1.25,0,80)"
     id="g10"><g
       transform="scale(0.1,0.1)"
       id="g12"><path
         id="path14"
         style="fill:#c84755;fill-opacity:1;fill-rule:nonzero;stroke:none"
         d="M 640,320 C 640,143.27 496.73,0 320,0 143.27,0 0,143.27 0,320 0,496.73 143.27,640 320,640 496.73,640 640,496.73 640,320" /><path
         id="path16"
         style="fill:#a43f4a;fill-opacity:1;fill-rule:nonzero;stroke:none"
         d="m 490,380 0,20 c 11.047,0 20,8.953 20,20 l 0,-20 c 0,-11.047 -8.953,-20 -20,-20" /><path
         id="path18"
         style="fill:#a43f4a;fill-opacity:1;fill-rule:nonzero;stroke:none"
         d="m 490,290 0,20 c 11.047,0 20,8.953 20,20 l 0,-20 c 0,-11.047 -8.953,-20 -20,-20" /><path
         id="path20"
         style="fill:#a43f4a;fill-opacity:1;fill-rule:nonzero;stroke:none"
         d="m 490,200 0,20 c 11.047,0 20,8.953 20,20 l 0,-20 c 0,-11.047 -8.953,-20 -20,-20" /><path
         id="path22"
         style="fill:#7db6d8;fill-opacity:1;fill-rule:nonzero;stroke:none"
         d="m 490,400 c -11.047,0 -20,8.953 -20,20 l 0,30 c 0,11.047 8.953,20 20,20 11.047,0 20,-8.953 20,-20 l 0,-30 c 0,-11.047 -8.953,-20 -20,-20" /><path
         id="path24"
         style="fill:#ffffff;fill-opacity:1;fill-rule:nonzero;stroke:none"
         d="m 490,310 c -11.047,0 -20,8.953 -20,20 l 0,30 c 0,11.047 8.953,20 20,20 11.047,0 20,-8.953 20,-20 l 0,-30 c 0,-11.047 -8.953,-20 -20,-20" /><path
         id="path26"
         style="fill:#77caa9;fill-opacity:1;fill-rule:nonzero;stroke:none"
         d="m 490,220 c -11.047,0 -20,8.953 -20,20 l 0,30 c 0,11.047 8.953,20 20,20 11.047,0 20,-8.953 20,-20 l 0,-30 c 0,-11.047 -8.953,-20 -20,-20" /><path
         id="path28"
         style="fill:#a43f4a;fill-opacity:1;fill-rule:nonzero;stroke:none"
         d="m 450,100 -240,0 c -19.645,0 -35.984,14.16 -39.359,32.832 C 177.945,124.941 188.395,120 200,120 l 240,0 c 22.09,0 40,17.906 40,40 l 0,42.676 c 2.941,-1.703 6.355,-2.676 10,-2.676 l 0,-60 c 0,-22.094 -17.91,-40 -40,-40 m 30,187.324 0,5.352 c 2.941,-1.703 6.355,-2.676 10,-2.676 l 0,0 c -3.645,0 -7.059,-0.973 -10,-2.676 m 0,90 0,5.352 c 2.941,-1.703 6.355,-2.676 10,-2.676 l 0,0 c -3.645,0 -7.059,-0.973 -10,-2.676 m 0,90 0,12.676 c 0,2.445 -0.219,4.844 -0.641,7.168 4.438,-4.797 7.719,-10.68 9.391,-17.207 -3.176,-0.195 -6.148,-1.133 -8.75,-2.637" /><path
         id="path30"
         style="fill:#883840;fill-opacity:1;fill-rule:nonzero;stroke:none"
         d="m 490,380 c -3.645,0 -7.059,0.973 -10,2.676 l 0,20 c 2.941,-1.703 6.355,-2.676 10,-2.676 l 0,-20" /><path
         id="path32"
         style="fill:#883840;fill-opacity:1;fill-rule:nonzero;stroke:none"
         d="m 490,290 c -3.645,0 -7.059,0.973 -10,2.676 l 0,20 c 2.941,-1.703 6.355,-2.676 10,-2.676 l 0,-20" /><path
         id="path34"
         style="fill:#883840;fill-opacity:1;fill-rule:nonzero;stroke:none"
         d="m 490,200 c -3.645,0 -7.059,0.973 -10,2.676 l 0,20 c 2.941,-1.703 6.355,-2.676 10,-2.676 l 0,-20" /><path
         id="path36"
         style="fill:#6594b2;fill-opacity:1;fill-rule:nonzero;stroke:none"
         d="m 490,400 c -3.645,0 -7.059,0.973 -10,2.676 l 0,64.648 c 2.602,1.504 5.574,2.442 8.75,2.637 0.816,-3.184 1.25,-6.52 1.25,-9.961 l 0,-60" /><path
         id="path38"
         style="fill:#d4d3d1;fill-opacity:1;fill-rule:nonzero;stroke:none"
         d="m 490,310 c -3.645,0 -7.059,0.973 -10,2.676 l 0,64.648 c 2.941,1.703 6.355,2.676 10,2.676 l 0,-70" /><path
         id="path40"
         style="fill:#62a48d;fill-opacity:1;fill-rule:nonzero;stroke:none"
         d="m 490,220 c -3.645,0 -7.059,0.973 -10,2.676 l 0,64.648 c 2.941,1.703 6.355,2.676 10,2.676 l 0,-70" /><path
         id="path42"
         style="fill:#e08e4c;fill-opacity:1;fill-rule:nonzero;stroke:none"
         d="m 480,160 c 0,-22.094 -17.91,-40 -40,-40 l -240,0 c -22.09,0 -40,17.906 -40,40 l 0,320 c 0,22.094 17.91,40 40,40 l 240,0 c 22.09,0 40,-17.906 40,-40 l 0,-320" /><path
         id="path44"
         style="fill:#495672;fill-opacity:1;fill-rule:nonzero;stroke:none"
         d="m 220,120 30,0 0,400 -30,0 0,-400 z" /><path
         id="path46"
         style="fill:#a43f4a;fill-opacity:1;fill-rule:nonzero;stroke:none"
         d="m 160,400 -10,0 c -11.047,0 -20,8.953 -20,20 0,11.047 8.953,20 20,20 l 10,0 0,-40" /><path
         id="path48"
         style="fill:#b77744;fill-opacity:1;fill-rule:nonzero;stroke:none"
         d="m 180,400 -20,0 0,40 20,0 c 11.047,0 20,-8.953 20,-20 0,-11.047 -8.953,-20 -20,-20" /><path
         id="path50"
         style="fill:#a43f4a;fill-opacity:1;fill-rule:nonzero;stroke:none"
         d="m 160,320 -10,0 c -11.047,0 -20,8.953 -20,20 0,11.047 8.953,20 20,20 l 10,0 0,-40" /><path
         id="path52"
         style="fill:#b77744;fill-opacity:1;fill-rule:nonzero;stroke:none"
         d="m 180,320 -20,0 0,40 20,0 c 11.047,0 20,-8.953 20,-20 0,-11.047 -8.953,-20 -20,-20" /><path
         id="path54"
         style="fill:#a43f4a;fill-opacity:1;fill-rule:nonzero;stroke:none"
         d="m 160,240 -10,0 c -11.047,0 -20,8.953 -20,20 0,11.047 8.953,20 20,20 l 10,0 0,-40" /><path
         id="path56"
         style="fill:#b77744;fill-opacity:1;fill-rule:nonzero;stroke:none"
         d="m 180,240 -20,0 0,40 20,0 c 11.047,0 20,-8.953 20,-20 0,-11.047 -8.953,-20 -20,-20" /><path
         id="path58"
         style="fill:#a43f4a;fill-opacity:1;fill-rule:nonzero;stroke:none"
         d="m 160,160 -10,0 c -11.047,0 -20,8.953 -20,20 0,11.047 8.953,20 20,20 l 10,0 0,-40" /><path
         id="path60"
         style="fill:#b77744;fill-opacity:1;fill-rule:nonzero;stroke:none"
         d="m 180,160 -20,0 0,40 20,0 c 11.047,0 20,-8.953 20,-20 0,-11.047 -8.953,-20 -20,-20" /><path
         id="path62"
         style="fill:#e1e3cc;fill-opacity:1;fill-rule:nonzero;stroke:none"
         d="m 200,440 c 0,-11.047 -8.953,-20 -20,-20 l -30,0 c -11.047,0 -20,8.953 -20,20 0,11.047 8.953,20 20,20 l 30,0 c 11.047,0 20,-8.953 20,-20" /><path
         id="path64"
         style="fill:#e1e3cc;fill-opacity:1;fill-rule:nonzero;stroke:none"
         d="m 200,360 c 0,-11.047 -8.953,-20 -20,-20 l -30,0 c -11.047,0 -20,8.953 -20,20 0,11.047 8.953,20 20,20 l 30,0 c 11.047,0 20,-8.953 20,-20" /><path
         id="path66"
         style="fill:#e1e3cc;fill-opacity:1;fill-rule:nonzero;stroke:none"
         d="m 200,280 c 0,-11.047 -8.953,-20 -20,-20 l -30,0 c -11.047,0 -20,8.953 -20,20 0,11.047 8.953,20 20,20 l 30,0 c 11.047,0 20,-8.953 20,-20" /><path
         id="path68"
         style="fill:#e1e3cc;fill-opacity:1;fill-rule:nonzero;stroke:none"
         d="m 200,200 c 0,-11.047 -8.953,-20 -20,-20 l -30,0 c -11.047,0 -20,8.953 -20,20 0,11.047 8.953,20 20,20 l 30,0 c 11.047,0 20,-8.953 20,-20" /><path
         id="path70"
         style="fill:#f3cc70;fill-opacity:1;fill-rule:nonzero;stroke:none"
         d="m 400,370 c 0,-22.094 -17.91,-40 -40,-40 -22.09,0 -40,17.906 -40,40 0,22.094 17.91,40 40,40 22.09,0 40,-17.906 40,-40" /><path
         id="path72"
         style="fill:#f3cc70;fill-opacity:1;fill-rule:nonzero;stroke:none"
         d="m 420,247.406 c 0,-30.105 -26.863,-27.254 -60,-27.254 -33.137,0 -60,-2.851 -60,27.254 0,30.102 26.863,72.672 60,72.672 33.137,0 60,-42.57 60,-72.672" /></g></g></svg>