<?xml version="1.0" encoding="UTF-8" standalone="no"?>
<svg
   xmlns:dc="http://purl.org/dc/elements/1.1/"
   xmlns:cc="http://creativecommons.org/ns#"
   xmlns:rdf="http://www.w3.org/1999/02/22-rdf-syntax-ns#"
   xmlns:svg="http://www.w3.org/2000/svg"
   xmlns="http://www.w3.org/2000/svg"
   viewBox="0 0 80 80"
   height="80"
   width="80"
   xml:space="preserve"
   version="1.1"
   id="svg2"><metadata
     id="metadata8"><rdf:RDF><cc:Work
         rdf:about=""><dc:format>image/svg+xml</dc:format><dc:type
           rdf:resource="http://purl.org/dc/dcmitype/StillImage" /></cc:Work></rdf:RDF></metadata><defs
     id="defs6" /><g
     transform="matrix(1.25,0,0,-1.25,0,80)"
     id="g10"><g
       transform="scale(0.1,0.1)"
       id="g12"><path
         id="path14"
         style="fill:#7db6d8;fill-opacity:1;fill-rule:nonzero;stroke:none"
         d="M 640,320 C 640,143.27 496.73,0 320,0 143.27,0 0,143.27 0,320 0,496.73 143.27,640 320,640 496.73,640 640,496.73 640,320" /><path
         id="path16"
         style="fill:#6594b2;fill-opacity:1;fill-rule:nonzero;stroke:none"
         d="m 320,80 c -121.309,0 -220,98.691 -220,220 0,121.309 98.691,220 220,220 121.309,0 220,-98.691 220,-220 0,-45.215 -13.617,-88.652 -39.375,-125.629 -3.852,-5.531 -10.059,-8.574 -16.418,-8.574 -3.082,0 -6.199,0.715 -9.105,2.207 -2.313,1.18 -40.922,21.559 -63.961,64.008 -20.758,-27.778 -53.797,-45.84 -91.141,-45.84 -62.867,0 -113.828,50.961 -113.828,113.828 0,62.867 50.961,113.828 113.828,113.828 28.359,0 54.234,-10.433 74.164,-27.59 l 0,0.828 c 0,11.043 8.957,20 20,20 11.047,0 20,-8.957 20,-20 l 0,-87.902 c 0,-43.328 26.41,-71.414 43.941,-85.285 C 492.48,240.176 500,269.594 500,300 c 0,99.254 -80.746,180 -180,180 -99.254,0 -180,-80.746 -180,-180 0,-99.254 80.746,-180 180,-180 29.055,0 56.77,6.699 82.383,19.91 2.93,1.52 6.062,2.238 9.152,2.238 7.242,0 14.242,-3.957 17.789,-10.839 5.067,-9.821 1.211,-21.879 -8.601,-26.946 C 389.824,88.4219 354.996,80 320,80 m 0,293.828 c -40.711,0 -73.828,-33.117 -73.828,-73.828 0,-40.707 33.117,-73.828 73.828,-73.828 40.711,0 73.828,33.121 73.828,73.828 0,40.711 -33.117,73.828 -73.828,73.828" /><path
         id="path18"
         style="fill:#ffffff;fill-opacity:1;fill-rule:nonzero;stroke:none"
         d="m 320,100 c -121.309,0 -220,98.691 -220,220 0,121.309 98.691,220 220,220 121.309,0 220,-98.691 220,-220 0,-45.215 -13.613,-88.66 -39.375,-125.637 -5.715,-8.211 -16.633,-10.918 -25.52,-6.367 -3.308,1.692 -80.933,42.465 -80.933,131.176 l 0,87.891 c 0,11.042 8.953,20 20,20 11.043,0 20,-8.958 20,-20 l 0,-87.891 c 0,-43.332 26.402,-71.43 43.941,-85.293 C 492.48,260.176 500,289.59 500,320 c 0,99.246 -80.754,180 -180,180 -99.246,0 -180,-80.754 -180,-180 0,-99.246 80.754,-180 180,-180 29.055,0 56.77,6.699 82.383,19.91 9.797,5.078 21.875,1.223 26.941,-8.601 5.071,-9.817 1.211,-21.883 -8.601,-26.946 C 389.824,108.43 354.988,100 320,100" /><path
         id="path20"
         style="fill:#ffffff;fill-opacity:1;fill-rule:nonzero;stroke:none"
         d="m 320,433.828 c -62.867,0 -113.828,-50.961 -113.828,-113.828 0,-62.867 50.961,-113.828 113.828,-113.828 62.867,0 113.828,50.961 113.828,113.828 0,62.867 -50.961,113.828 -113.828,113.828 z m 0,-40 c 40.711,0 73.828,-33.117 73.828,-73.828 0,-40.707 -33.117,-73.828 -73.828,-73.828 -40.711,0 -73.828,33.121 -73.828,73.828 0,40.711 33.117,73.828 73.828,73.828" /></g></g></svg>