<?xml version="1.0" encoding="UTF-8" standalone="no"?>
<svg
   xmlns:dc="http://purl.org/dc/elements/1.1/"
   xmlns:cc="http://creativecommons.org/ns#"
   xmlns:rdf="http://www.w3.org/1999/02/22-rdf-syntax-ns#"
   xmlns:svg="http://www.w3.org/2000/svg"
   xmlns="http://www.w3.org/2000/svg"
   viewBox="0 0 80 80"
   height="80"
   width="80"
   xml:space="preserve"
   version="1.1"
   id="svg2"><metadata
     id="metadata8"><rdf:RDF><cc:Work
         rdf:about=""><dc:format>image/svg+xml</dc:format><dc:type
           rdf:resource="http://purl.org/dc/dcmitype/StillImage" /></cc:Work></rdf:RDF></metadata><defs
     id="defs6" /><g
     transform="matrix(1.25,0,0,-1.25,0,80)"
     id="g10"><g
       transform="scale(0.1,0.1)"
       id="g12"><path
         id="path14"
         style="fill:#77caa9;fill-opacity:1;fill-rule:nonzero;stroke:none"
         d="M 640,320 C 640,143.27 496.73,0 320,0 143.27,0 0,143.27 0,320 0,496.73 143.27,640 320,640 496.73,640 640,496.73 640,320" /><path
         id="path16"
         style="fill:#62a48d;fill-opacity:1;fill-rule:nonzero;stroke:none"
         d="m 320,80 c 0,0 -170,105.004 -170,252 0,92.785 76.109,168 170,168 93.891,0 170,-75.215 170,-168 C 490,182.371 320,80 320,80 m 0,340 c -44.184,0 -80,-35.816 -80,-80 0,-44.184 35.816,-80 80,-80 44.184,0 80,35.816 80,80 0,44.184 -35.816,80 -80,80" /><path
         id="path18"
         style="fill:#ffffff;fill-opacity:1;fill-rule:nonzero;stroke:none"
         d="m 320,280 c -44.184,0 -80,35.816 -80,80 0,44.184 35.816,80 80,80 44.184,0 80,-35.816 80,-80 0,-44.184 -35.816,-80 -80,-80 z m 0,240 c -93.891,0 -170,-75.215 -170,-168 0,-146.996 170,-252 170,-252 0,0 170,102.371 170,252 0,92.785 -76.109,168 -170,168" /></g></g></svg>