<?xml version="1.0" encoding="UTF-8" standalone="no"?>
<svg
   xmlns:dc="http://purl.org/dc/elements/1.1/"
   xmlns:cc="http://creativecommons.org/ns#"
   xmlns:rdf="http://www.w3.org/1999/02/22-rdf-syntax-ns#"
   xmlns:svg="http://www.w3.org/2000/svg"
   xmlns="http://www.w3.org/2000/svg"
   viewBox="0 0 80 80"
   height="80"
   width="80"
   xml:space="preserve"
   version="1.1"
   id="svg2"><metadata
     id="metadata8"><rdf:RDF><cc:Work
         rdf:about=""><dc:format>image/svg+xml</dc:format><dc:type
           rdf:resource="http://purl.org/dc/dcmitype/StillImage" /></cc:Work></rdf:RDF></metadata><defs
     id="defs6" /><g
     transform="matrix(1.25,0,0,-1.25,0,80)"
     id="g10"><g
       transform="scale(0.1,0.1)"
       id="g12"><path
         id="path14"
         style="fill:#c84755;fill-opacity:1;fill-rule:nonzero;stroke:none"
         d="M 640,320 C 640,143.27 496.73,0 320,0 143.27,0 0,143.27 0,320 0,496.73 143.27,640 320,640 496.73,640 640,496.73 640,320" /><path
         id="path16"
         style="fill:#a43f4a;fill-opacity:1;fill-rule:nonzero;stroke:none"
         d="m 480,100 -320,0 c -22.09,0 -40,17.91 -40,40 l 0,280 0,-260 c 0,-22.09 17.91,-40 40,-40 l 320,0 c 22.09,0 40,17.91 40,40 l 0,-20 c 0,-22.09 -17.91,-40 -40,-40" /><path
         id="path18"
         style="fill:#e1e3cc;fill-opacity:1;fill-rule:nonzero;stroke:none"
         d="m 520,160 c 0,-22.09 -17.91,-40 -40,-40 l -320,0 c -22.09,0 -40,17.91 -40,40 l 0,280 c 0,22.09 17.91,40 40,40 l 320,0 c 22.09,0 40,-17.91 40,-40 l 0,-280" /><path
         id="path20"
         style="fill:#a43f4a;fill-opacity:1;fill-rule:nonzero;stroke:none"
         d="m 520,180 0,260 c 0,22.09 -17.91,40 -40,40 l -320,0 c -22.09,0 -40,-17.91 -40,-40 l 0,20 c 0,22.09 17.91,40 40,40 l 320,0 c 22.09,0 40,-17.91 40,-40 l 0,-280" /><path
         id="path22"
         style="fill:#b7b7a7;fill-opacity:1;fill-rule:nonzero;stroke:none"
         d="m 480,140 -320,0 c -22.09,0 -40,17.91 -40,40 l 0,260 c 0,22.09 17.91,40 40,40 l 320,0 c 22.09,0 40,-17.91 40,-40 l 0,-260 c 0,-22.09 -17.91,-40 -40,-40" /><path
         id="path24"
         style="fill:#e1e3cc;fill-opacity:1;fill-rule:nonzero;stroke:none"
         d="m 520,200 c 0,-22.09 -17.91,-40 -40,-40 l -320,0 c -22.09,0 -40,17.91 -40,40 l 0,280 c 0,22.09 17.91,40 40,40 l 320,0 c 22.09,0 40,-17.91 40,-40 l 0,-280" /><path
         id="path26"
         style="fill:#495672;fill-opacity:1;fill-rule:nonzero;stroke:none"
         d="m 160,280 120,0 0,120 -120,0 0,-120 z" /><path
         id="path28"
         style="fill:#495672;fill-opacity:1;fill-rule:nonzero;stroke:none"
         d="m 360,360 120,0 0,10 -120,0 0,-10 z" /><path
         id="path30"
         style="fill:#495672;fill-opacity:1;fill-rule:nonzero;stroke:none"
         d="m 360,380 120,0 0,10 -120,0 0,-10 z" /><path
         id="path32"
         style="fill:#495672;fill-opacity:1;fill-rule:nonzero;stroke:none"
         d="m 320,360 30,0 0,40 -30,0 0,-40 z" /><path
         id="path34"
         style="fill:#495672;fill-opacity:1;fill-rule:nonzero;stroke:none"
         d="m 320,330 160,0 0,10 -160,0 0,-10 z" /><path
         id="path36"
         style="fill:#495672;fill-opacity:1;fill-rule:nonzero;stroke:none"
         d="m 320,310 160,0 0,10 -160,0 0,-10 z" /><path
         id="path38"
         style="fill:#495672;fill-opacity:1;fill-rule:nonzero;stroke:none"
         d="m 320,290 160,0 0,10 -160,0 0,-10 z" /><path
         id="path40"
         style="fill:#495672;fill-opacity:1;fill-rule:nonzero;stroke:none"
         d="m 320,270 160,0 0,10 -160,0 0,-10 z" /><path
         id="path42"
         style="fill:#495672;fill-opacity:1;fill-rule:nonzero;stroke:none"
         d="m 358.75,240 121.25,0 0,10 -121.25,0 0,-10 z" /><path
         id="path44"
         style="fill:#495672;fill-opacity:1;fill-rule:nonzero;stroke:none"
         d="m 160,240 120,0 0,10 -120,0 0,-10 z" /><path
         id="path46"
         style="fill:#495672;fill-opacity:1;fill-rule:nonzero;stroke:none"
         d="m 160,220 120,0 0,10 -120,0 0,-10 z" /><path
         id="path48"
         style="fill:#495672;fill-opacity:1;fill-rule:nonzero;stroke:none"
         d="m 160,200 120,0 0,10 -120,0 0,-10 z" /><path
         id="path50"
         style="fill:#495672;fill-opacity:1;fill-rule:nonzero;stroke:none"
         d="m 160,180 120,0 0,10 -120,0 0,-10 z" /><path
         id="path52"
         style="fill:#495672;fill-opacity:1;fill-rule:nonzero;stroke:none"
         d="m 320,220 160,0 0,10 -160,0 0,-10 z" /><path
         id="path54"
         style="fill:#495672;fill-opacity:1;fill-rule:nonzero;stroke:none"
         d="m 320,200 160,0 0,10 -160,0 0,-10 z" /><path
         id="path56"
         style="fill:#495672;fill-opacity:1;fill-rule:nonzero;stroke:none"
         d="m 320,180 160,0 0,10 -160,0 0,-10 z" /><path
         id="path58"
         style="fill:#e1e3cc;fill-opacity:1;fill-rule:nonzero;stroke:none"
         d="m 260,360 c 0,-11.047 -8.953,-20 -20,-20 -11.047,0 -20,8.953 -20,20 0,11.047 8.953,20 20,20 11.047,0 20,-8.953 20,-20" /><path
         id="path60"
         style="fill:#495672;fill-opacity:1;fill-rule:nonzero;stroke:none"
         d="m 160,440 320,0 0,40 -320,0 0,-40 z" /><path
         id="path62"
         style="fill:#e1e3cc;fill-opacity:1;fill-rule:nonzero;stroke:none"
         d="m 270,290 0,24.141 -7.852,7.804 c -4.867,4.836 -12.761,4.836 -17.628,0 l -8.438,-8.386 -19.281,19.164 c -9.766,9.703 -25.594,9.703 -35.356,0 L 170,321.344 170,290 l 100,0" /></g></g></svg>