<?xml version="1.0" encoding="UTF-8" standalone="no"?>
<svg
   xmlns:dc="http://purl.org/dc/elements/1.1/"
   xmlns:cc="http://creativecommons.org/ns#"
   xmlns:rdf="http://www.w3.org/1999/02/22-rdf-syntax-ns#"
   xmlns:svg="http://www.w3.org/2000/svg"
   xmlns="http://www.w3.org/2000/svg"
   viewBox="0 0 80 80"
   height="80"
   width="80"
   xml:space="preserve"
   version="1.1"
   id="svg2"><metadata
     id="metadata8"><rdf:RDF><cc:Work
         rdf:about=""><dc:format>image/svg+xml</dc:format><dc:type
           rdf:resource="http://purl.org/dc/dcmitype/StillImage" /></cc:Work></rdf:RDF></metadata><defs
     id="defs6" /><g
     transform="matrix(1.25,0,0,-1.25,0,80)"
     id="g10"><g
       transform="scale(0.1,0.1)"
       id="g12"><path
         id="path14"
         style="fill:#7db6d8;fill-opacity:1;fill-rule:nonzero;stroke:none"
         d="M 640,320 C 640,143.27 496.73,0 320,0 143.27,0 0,143.27 0,320 0,496.73 143.27,640 320,640 496.73,640 640,496.73 640,320" /><path
         id="path16"
         style="fill:#6594b2;fill-opacity:1;fill-rule:nonzero;stroke:none"
         d="m 431.695,140 c -1.136,0 -2.269,0.152 -3.359,0.523 -2.27,0.743 -5.262,1.551 -8.883,2.551 -47.043,13.028 -190.164,52.633 -259.027,266.297 -0.613,1.899 -0.699,3.93 -0.219,5.895 0.348,1.394 9.031,35 66.77,44.578 0.605,0.105 1.218,0.156 1.832,0.156 1.546,0 3.093,-0.336 4.515,-1.008 2.117,-0.961 52.129,-24.484 56.297,-72.422 0.285,-3.054 -0.762,-6.109 -2.836,-8.355 -16.387,-17.766 -30.637,-39.606 -29.871,-45.824 1.309,-11.063 36.024,-69.387 98.191,-99.786 9.274,1.461 30.766,15.625 46.325,28.911 1.984,1.691 4.449,2.632 7.004,2.632 0.875,0 1.761,-0.113 2.64,-0.339 49.317,-11.957 67.098,-45.801 67.84,-47.243 1.047,-2.05 1.418,-4.406 1.047,-6.675 -8.313,-52.239 -42.309,-68.254 -43.75,-68.911 -1.418,-0.652 -2.969,-0.98 -4.516,-0.98" /><path
         id="path18"
         style="fill:#ffffff;fill-opacity:1;fill-rule:nonzero;stroke:none"
         d="m 289.621,406.57 c -4.168,47.938 -54.18,71.461 -56.297,72.422 -1.984,0.938 -4.211,1.223 -6.347,0.852 -57.739,-9.578 -66.422,-43.184 -66.77,-44.578 -0.48,-1.965 -0.394,-3.996 0.219,-5.895 68.863,-213.664 211.984,-253.266 259.027,-266.297 3.621,-1 6.613,-1.808 8.883,-2.551 1.09,-0.371 2.223,-0.523 3.359,-0.523 1.547,0 3.098,0.328 4.516,0.98 1.441,0.657 35.437,16.672 43.75,68.911 0.371,2.269 0,4.625 -1.047,6.675 -0.742,1.442 -18.523,35.286 -67.84,47.243 -3.445,0.894 -6.98,-0.024 -9.644,-2.293 -15.559,-13.286 -37.051,-27.45 -46.325,-28.911 -62.167,30.399 -96.882,88.723 -98.191,99.786 -0.762,6.218 13.484,28.058 29.871,45.824 2.074,2.246 3.121,5.301 2.836,8.355" /></g></g></svg>